<svg xmlns="http://www.w3.org/2000/svg" xml:space="preserve" width="120.65mm" height="603.25mm" version="1.1" style="fill-rule:evenodd"
viewBox="0 0 9956 49779"
 >
 <!-- Created by: treedbox.com.br -->
 <defs>
  <style type="text/css">
   <![CDATA[
    .fil0 {fill:none}
    .fil1 {fill:#e91e63}
    .fil2 {fill:#fff}
    .fil3 {fill:#000}
   ]]>
  </style>
 </defs>
 <g id="geo">
  <polygon class="fil0" points="0,0 9956,0 9956,49779 0,49779 "/>
  <path class="fil1" d="M7792 4978l-1431 -1431c-147,-147 -147,-387 0,-534l0 0c147,-147 387,-147 533,0l1698 1698c3,2 5,5 7,7 2,2 5,5 7,7 2,2 4,5 6,7 2,3 4,5 6,8 2,2 4,5 6,7l0 0c2,3 4,5 6,8l0 0c2,2 3,5 5,7 2,3 4,5 6,8 1,3 3,5 5,8l0 0c1,3 3,5 4,8l0 0c2,3 4,5 5,8l0 0 4 8c2,3 3,6 5,8l0 1c1,2 2,5 4,8l0 0 3 8 0 0 4 9 3 8 0 0c1,3 2,6 3,9l0 0c1,3 2,6 3,9l0 0c1,2 2,5 3,8l0 0 2 9c1,3 2,6 3,9 0,3 1,6 2,9l0 0 2 9 1 9 2 9 0 0c0,3 0,6 1,9 0,3 0,6 1,9l0 9 0 0c1,3 1,6 1,9l0 0 0 9 0 0 0 9c0,3 0,6 0,9l0 0 0 9 0 0c0,3 0,6 -1,9l0 0c0,3 0,6 0,9 -1,3 -1,6 -1,9l-1 9 0 0 -2 9c0,3 -1,6 -1,9 -1,3 -2,6 -2,9l0 0c-1,3 -2,6 -2,9 -1,3 -2,6 -3,9l-2 8 0 0c-1,3 -2,6 -3,9l0 0 -3 9 0 0c-1,3 -2,6 -3,8l0 1c-1,2 -2,5 -3,8l-4 9 0 0 -3 8 0 0c-2,3 -3,6 -4,8l0 0c-2,3 -3,6 -5,9 -1,2 -2,5 -4,8l0 0c-1,2 -3,5 -5,8l0 0c-1,2 -3,5 -4,8l0 0c-2,2 -4,5 -5,8 -2,2 -4,5 -6,7 -2,3 -3,6 -5,8l0 0c-2,3 -4,5 -6,8l0 0c-2,2 -4,5 -6,7 -2,3 -4,5 -6,7 -2,3 -4,5 -6,8 -2,2 -5,4 -7,7 -2,2 -4,4 -7,7l-1698 1698c-146,146 -386,146 -533,0l0 0c-147,-147 -147,-387 0,-534l1431 -1431zm800 267l0 0zm-6428 -267l1431 -1431c147,-147 147,-387 0,-534l0 0c-147,-147 -387,-147 -534,0l-1698 1698c-2,2 -4,5 -6,7 -3,2 -5,5 -7,7 -2,2 -4,5 -6,7 -2,3 -4,5 -6,8 -2,2 -4,5 -6,7l0 0c-2,3 -4,5 -6,8l0 0c-2,2 -4,5 -5,7 -2,3 -4,5 -6,8 -1,3 -3,5 -5,8l0 0c-1,3 -3,5 -5,8l0 0c-1,3 -3,5 -4,8l0 0 -5 8c-1,3 -2,6 -4,8l0 1c-1,2 -3,5 -4,8l0 0 -4 8 0 0 -3 9 -3 8 0 0c-2,3 -3,6 -4,9l0 0c-1,3 -2,6 -2,9l0 0c-1,2 -2,5 -3,8l0 0 -3 9c0,3 -1,6 -2,9 -1,3 -1,6 -2,9l0 0 -2 9 -1 9 -2 9 0 0c0,3 -1,6 -1,9 0,3 -1,6 -1,9l-1 9 0 0c0,3 0,6 0,9l0 0 -1 9 0 0 0 9c0,3 0,6 0,9l0 0 1 9 0 0c0,3 0,6 0,9l0 0c1,3 1,6 1,9 0,3 1,6 1,9l1 9 0 0 2 9c0,3 1,6 1,9 1,3 1,6 2,9l0 0c1,3 1,6 2,9 1,3 2,6 2,9l3 8 0 0c1,3 2,6 3,9l0 0 2 9 0 0c1,3 2,6 4,8l0 1c1,2 2,5 3,8l3 9 0 0 4 8 0 0c1,3 3,6 4,8l0 0c2,3 3,6 4,9 2,2 3,5 5,8l0 0c1,2 3,5 4,8l0 0c2,2 4,5 5,8l0 0c2,2 4,5 5,8 2,2 4,5 6,7 1,3 3,6 5,8l0 0c2,3 4,5 6,8l0 0c2,2 4,5 6,7 2,3 4,5 6,7 2,3 4,5 6,8 2,2 4,4 7,7 2,2 4,4 6,7l1698 1698c147,146 387,146 534,0l0 0c147,-147 147,-387 0,-534l-1431 -1431zm-801 267l0 0zm2670 1803l1161 -4336c54,-200 262,-320 462,-266l0 0c201,53 321,261 267,462l-1162 4335c-53,201 -261,321 -462,267l0 0c-200,-53 -320,-261 -266,-462z"/>
  <path class="fil2" d="M7792 24889l-1431 -1431c-147,-146 -147,-387 0,-533l0 0c147,-147 387,-147 533,0l1698 1698c3,2 5,4 7,7 2,2 5,4 7,7 2,2 4,4 6,7 2,2 4,5 6,7 2,3 4,5 6,8l0 0c2,2 4,5 6,7l0 0c2,3 3,5 5,8 2,2 4,5 6,8 1,2 3,5 5,7l0 1c1,2 3,5 4,7l0 0c2,3 4,6 5,9l0 0 4 8c2,2 3,5 5,8l0 0c1,3 2,6 4,8l0 0 3 9 0 0 4 8 3 9 0 0c1,3 2,6 3,8l0 0c1,3 2,6 3,9l0 0c1,3 2,6 3,9l0 0 2 9c1,3 2,5 3,8 0,3 1,6 2,9l0 0 2 9 1 9 2 9 0 0c0,3 0,6 1,9 0,3 0,6 1,9l0 9 0 0c1,3 1,6 1,9l0 0 0 9 0 0 0 9c0,3 0,6 0,9l0 0 0 10 0 0c0,3 0,6 -1,9l0 0c0,3 0,6 0,9 -1,3 -1,6 -1,9l-1 9 0 0 -2 9c0,3 -1,6 -1,9 -1,3 -2,5 -2,8l0 0c-1,3 -2,6 -2,9 -1,3 -2,6 -3,9l-2 9 0 0c-1,3 -2,6 -3,9l0 0 -3 8 0 0c-1,3 -2,6 -3,9l0 0c-1,3 -2,6 -3,9l-4 8 0 0 -3 8 0 0c-2,3 -3,6 -4,9l0 0c-2,3 -3,5 -5,8 -1,3 -2,5 -4,8l0 0c-1,3 -3,6 -5,8l0 0c-1,3 -3,6 -4,8l0 0c-2,3 -4,6 -5,8 -2,3 -4,5 -6,8 -2,3 -3,5 -5,8l0 0c-2,2 -4,5 -6,7l0 0c-2,3 -4,5 -6,8 -2,2 -4,5 -6,7 -2,2 -4,5 -6,7 -2,3 -5,5 -7,7 -2,3 -4,5 -7,7l-1698 1698c-146,147 -386,147 -533,0l0 0c-147,-147 -147,-387 0,-534l1431 -1431zm800 267l0 0zm-6428 -267l1431 -1431c147,-146 147,-387 0,-533l0 0c-147,-147 -387,-147 -534,0l-1698 1698c-2,2 -4,4 -6,7 -3,2 -5,4 -7,7 -2,2 -4,4 -6,7 -2,2 -4,5 -6,7 -2,3 -4,5 -6,8l0 0c-2,2 -4,5 -6,7l0 0c-2,3 -4,5 -5,8 -2,2 -4,5 -6,8 -1,2 -3,5 -5,7l0 1c-1,2 -3,5 -5,7l0 0c-1,3 -3,6 -4,9l0 0 -5 8c-1,2 -2,5 -4,8l0 0c-1,3 -3,6 -4,8l0 0 -4 9 0 0 -3 8 -3 9 0 0c-2,3 -3,6 -4,8l0 0c-1,3 -2,6 -2,9l0 0c-1,3 -2,6 -3,9l0 0 -3 9c0,3 -1,5 -2,8 -1,3 -1,6 -2,9l0 0 -2 9 -1 9 -2 9 0 0c0,3 -1,6 -1,9 0,3 -1,6 -1,9l-1 9 0 0c0,3 0,6 0,9l0 0 -1 9 0 0 0 9c0,3 0,6 0,9l0 0 1 10 0 0c0,3 0,6 0,9l0 0c1,3 1,6 1,9 0,3 1,6 1,9l1 9 0 0 2 9c0,3 1,6 1,9 1,3 1,5 2,8l0 0c1,3 1,6 2,9 1,3 2,6 2,9l3 9 0 0c1,3 2,6 3,9l0 0 2 8 0 0c1,3 2,6 4,9l0 0c1,3 2,6 3,9l3 8 0 0 4 8 0 0c1,3 3,6 4,9l0 0c2,3 3,5 4,8 2,3 3,5 5,8l0 0c1,3 3,6 4,8l0 0c2,3 4,6 5,8l0 0c2,3 4,6 5,8 2,3 4,5 6,8 1,3 3,5 5,8l0 0c2,2 4,5 6,7l0 0c2,3 4,5 6,8 2,2 4,5 6,7 2,2 4,5 6,7 2,3 4,5 7,7 2,3 4,5 6,7l1698 1698c147,147 387,147 534,0l0 0c147,-147 147,-387 0,-534l-1431 -1431zm-801 267l0 0zm2670 1804l1161 -4336c54,-201 262,-321 462,-267l0 0c201,54 321,262 267,462l-1162 4336c-53,200 -261,320 -462,267l0 0c-200,-54 -320,-262 -266,-462z"/>
  <path class="fil3" d="M7792 44801l-1431 -1431c-147,-147 -147,-387 0,-534l0 0c147,-147 387,-147 533,0l1698 1698c3,2 5,5 7,7 2,2 5,5 7,7 2,2 4,5 6,7 2,3 4,5 6,8 2,2 4,5 6,7l0 0c2,3 4,5 6,8l0 0c2,2 3,5 5,7 2,3 4,5 6,8 1,3 3,5 5,8l0 0c1,3 3,5 4,8l0 0c2,3 4,5 5,8l0 0 4 8c2,3 3,6 5,8l0 1c1,2 2,5 4,8l0 0 3 8 0 0 4 9 3 8 0 0c1,3 2,6 3,9l0 0c1,3 2,6 3,9l0 0c1,2 2,5 3,8l0 0 2 9c1,3 2,6 3,9 0,3 1,6 2,9l0 0 2 9 1 9 2 9 0 0c0,3 0,6 1,9 0,3 0,6 1,9l0 9 0 0c1,3 1,6 1,9l0 0 0 9 0 0 0 9c0,3 0,6 0,9l0 0 0 9 0 0c0,3 0,6 -1,9l0 0c0,3 0,6 0,9 -1,3 -1,6 -1,9l-1 9 0 0 -2 9c0,3 -1,6 -1,9 -1,3 -2,6 -2,9l0 0c-1,3 -2,6 -2,9 -1,3 -2,6 -3,9l-2 8 0 0c-1,3 -2,6 -3,9l0 0 -3 9 0 0c-1,3 -2,6 -3,8l0 1c-1,2 -2,5 -3,8l-4 9 0 0 -3 8 0 0c-2,3 -3,6 -4,8l0 0c-2,3 -3,6 -5,9 -1,2 -2,5 -4,8l0 0c-1,2 -3,5 -5,8l0 0c-1,2 -3,5 -4,8l0 0c-2,2 -4,5 -5,8 -2,2 -4,5 -6,7 -2,3 -3,6 -5,8l0 0c-2,3 -4,5 -6,8l0 0c-2,2 -4,5 -6,7 -2,3 -4,5 -6,7 -2,3 -4,5 -6,8 -2,2 -5,4 -7,7 -2,2 -4,4 -7,7l-1698 1698c-146,146 -386,146 -533,0l0 0c-147,-147 -147,-387 0,-534l1431 -1431zm800 267l0 0zm-6428 -267l1431 -1431c147,-147 147,-387 0,-534l0 0c-147,-147 -387,-147 -534,0l-1698 1698c-2,2 -4,5 -6,7 -3,2 -5,5 -7,7 -2,2 -4,5 -6,7 -2,3 -4,5 -6,8 -2,2 -4,5 -6,7l0 0c-2,3 -4,5 -6,8l0 0c-2,2 -4,5 -5,7 -2,3 -4,5 -6,8 -1,3 -3,5 -5,8l0 0c-1,3 -3,5 -5,8l0 0c-1,3 -3,5 -4,8l0 0 -5 8c-1,3 -2,6 -4,8l0 1c-1,2 -3,5 -4,8l0 0 -4 8 0 0 -3 9 -3 8 0 0c-2,3 -3,6 -4,9l0 0c-1,3 -2,6 -2,9l0 0c-1,2 -2,5 -3,8l0 0 -3 9c0,3 -1,6 -2,9 -1,3 -1,6 -2,9l0 0 -2 9 -1 9 -2 9 0 0c0,3 -1,6 -1,9 0,3 -1,6 -1,9l-1 9 0 0c0,3 0,6 0,9l0 0 -1 9 0 0 0 9c0,3 0,6 0,9l0 0 1 9 0 0c0,3 0,6 0,9l0 0c1,3 1,6 1,9 0,3 1,6 1,9l1 9 0 0 2 9c0,3 1,6 1,9 1,3 1,6 2,9l0 0c1,3 1,6 2,9 1,3 2,6 2,9l3 8 0 0c1,3 2,6 3,9l0 0 2 9 0 0c1,3 2,6 4,8l0 1c1,2 2,5 3,8l3 9 0 0 4 8 0 0c1,3 3,6 4,8l0 0c2,3 3,6 4,9 2,2 3,5 5,8l0 0c1,2 3,5 4,8l0 0c2,2 4,5 5,8l0 0c2,2 4,5 5,8 2,2 4,5 6,7 1,3 3,6 5,8l0 0c2,3 4,5 6,8l0 0c2,2 4,5 6,7 2,3 4,5 6,7 2,3 4,5 6,8 2,2 4,4 7,7 2,2 4,4 6,7l1698 1698c147,146 387,146 534,0l0 0c147,-147 147,-387 0,-534l-1431 -1431zm-801 267l0 0zm2670 1803l1161 -4336c54,-200 262,-320 462,-266l0 0c201,53 321,261 267,462l-1162 4335c-53,201 -261,321 -462,267l0 0c-200,-53 -320,-261 -266,-462z"/>
 </g>
</svg>
