<svg xmlns="http://www.w3.org/2000/svg" xml:space="preserve" width="120.65mm" height="603.25mm" version="1.1" style="fill-rule:evenodd"
viewBox="0 0 9956 49779"
 >
 <!-- Created by: treedbox.com.br -->
 <defs>
  <style type="text/css">
   <![CDATA[
    .fil0 {fill:none}
    .fil1 {fill:#e91e63}
    .fil2 {fill:#fff}
    .fil3 {fill:#000}
   ]]>
  </style>
 </defs>
 <g id="geo">
<rect class="fil0" width="9956" height="49779"/>
  <path class="fil1" d="M4383 7449c87,-1520 -3632,-2337 -1991,-4220 1102,-1285 2871,-768 2819,863 1555,-2791 3722,-275 2319,1105 -792,1064 -2446,1354 -3147,2252l0 0z"/>
  <path class="fil2" d="M4383 27361c87,-1520 -3632,-2337 -1991,-4221 1102,-1284 2871,-768 2819,863 1555,-2790 3722,-274 2319,1105 -792,1065 -2446,1354 -3147,2253l0 0z"/>
  <path class="fil3" d="M4383 47272c87,-1520 -3632,-2337 -1991,-4220 1102,-1285 2871,-769 2819,863 1555,-2791 3722,-275 2319,1105 -792,1064 -2446,1354 -3147,2252l0 0z"/>
 </g>
</svg>
