<svg xmlns="http://www.w3.org/2000/svg" xml:space="preserve" width="120.65mm" height="120.65mm" version="1.1" style="shape-rendering:geometricPrecision; text-rendering:geometricPrecision; image-rendering:optimizeQuality; fill-rule:evenodd; clip-rule:evenodd"
viewBox="0 0 2735 2735"
 xmlns:xlink="http://www.w3.org/1999/xlink">
 <defs>
  <style type="text/css">
   <![CDATA[
    .fil2 {
      fill:none
    }
    .fil1 {
      fill:#fff
    }
    .fil0 {
      fill:none
    }

    .girar1{
      -webkit-animation: girar1 2s infinite linear;
      -moz-animation: girar1 2s infinite linear;
      animation: girar1 2s infinite linear;
      -webkit-transform-origin:center;
      -moz-transform-origin:center;
      transform-origin:center;
    }
    .girar2{
      -webkit-animation: girar2  2s infinite linear;
      -moz-animation: girar2 2s infinite linear;
      animation: girar2 2s infinite linear;
      -webkit-transform-origin:center;
      -moz-transform-origin:bottom;
      transform-origin:center;
    }
@-webkit-keyframes girar1 {
  0%{
    -webkit-transform: rotate(0deg);
  }
  50%{
    -webkit-transform: rotate(360deg);
  }
  100%{
    -webkit-transform: rotate(360deg);
  }
}
@-webkit-keyframes girar2 {
  53%{
    -webkit-transform: rotate(0deg);
  }
  100%{
    -webkit-transform: rotate(-360deg);
  }
}
@-moz-keyframes girar1 {
  0%{
    -moz-transform: rotate(0deg);
  }
  50%{
    -moz-transform: rotate(360deg);
  }
  100%{
    -moz-transform: rotate(360deg);
  }
}
@-moz-keyframes girar2 {
  53%{
    -moz-transform: rotate(0deg);
  }
  100%{
    -moz-transform: rotate(-360deg);
  }
}

   ]]>
  </style>
 </defs>
 <g id="geo">
  <rect class="fil0" transform="matrix(2.64845E-014 -1 1 2.64845E-014 0.000105441 2734.98)" width="2735" height="2735"/>
  <g id="_703824624">
   <g>
    <path class="fil1" d="M1367 1486c329,0 596,-267 596,-596l-236 0c0,199 -161,359 -360,359 -198,0 -359,-160 -359,-359l-236 0c0,329 267,596 595,596z"/>
    <path class="fil2" d="M1367 295c329,0 596,267 596,595l-236 0c0,-198 -161,-359 -360,-359 -198,0 -359,161 -359,359l-236 0c0,-328 267,-595 595,-595z"/>
   </g>
   <path class="fil1" d="M1669 917c-8,160 -140,287 -302,287 -166,0 -301,-135 -301,-302 0,-166 135,-301 301,-301l0 0 134 0 0 -271 168 0c0,191 0,382 0,572l0 15 0 0zm-168 -15c0,0 0,0 0,0 0,74 -60,134 -134,134 -73,0 -133,-60 -133,-134 0,-73 60,-133 133,-133l134 0 0 133 0 0z"/>
   <g class="girar2">
    <path class="fil1" d="M1367 1249c329,0 596,267 596,596l-236 0c0,-199 -161,-359 -360,-359 -198,0 -359,160 -359,359l-236 0c0,-329 267,-596 595,-596z"/>
    <path class="fil2" d="M1367 2440c329,0 596,-267 596,-595l-236 0c0,198 -161,359 -360,359 -198,0 -359,-161 -359,-359l-236 0c0,328 267,595 595,595z"/>
   </g>
   <g class="girar1">
    <path class="fil1" d="M1367 1486c329,0 596,-267 596,-596l-236 0c0,199 -161,359 -360,359 -198,0 -359,-160 -359,-359l-236 0c0,329 267,596 595,596z"/>
    <path class="fil2" d="M1367 295c329,0 596,267 596,595l-236 0c0,-198 -161,-359 -360,-359 -198,0 -359,161 -359,359l-236 0c0,-328 267,-595 595,-595z"/>
   </g>
   <g>
    <path class="fil1" d="M1367 1249c329,0 596,267 596,596l-236 0c0,-199 -161,-359 -360,-359 -198,0 -359,160 -359,359l-236 0c0,-329 267,-596 595,-596z"/>
    <path class="fil2" d="M1367 2440c329,0 596,-267 596,-595l-236 0c0,198 -161,359 -360,359 -198,0 -359,-161 -359,-359l-236 0c0,328 267,595 595,595z"/>
   </g>
  </g>
 </g>
</svg>
